<svg width="11" height="13" viewBox="0 0 11 13" fill="none" xmlns="http://www.w3.org/2000/svg">
<path d="M2.79167 5.95898V3.79232C2.79167 3.07402 3.07701 2.38515 3.58492 1.87724C4.09283 1.36933 4.78171 1.08398 5.5 1.08398C6.21829 1.08398 6.90717 1.36933 7.41508 1.87724C7.92299 2.38515 8.20833 3.07402 8.20833 3.79232V5.95898M1.70833 5.95898H9.29167C9.88997 5.95898 10.375 6.44401 10.375 7.04232V10.834C10.375 11.4323 9.88997 11.9173 9.29167 11.9173H1.70833C1.11002 11.9173 0.625 11.4323 0.625 10.834V7.04232C0.625 6.44401 1.11002 5.95898 1.70833 5.95898Z" stroke="#C1BFBF" stroke-width="1.08333" stroke-linecap="round" stroke-linejoin="round"/>
</svg>
