<svg width="24" height="16" viewBox="0 0 24 16" fill="none" xmlns="http://www.w3.org/2000/svg">
<path d="M0.441406 15V12C0.441406 11.4333 0.64899 10.9583 1.06416 10.575C1.47932 10.1917 1.97841 10 2.56141 10H6.03291C6.38624 10 6.72191 10.0833 7.03991 10.25C7.35791 10.4167 7.61407 10.6417 7.80841 10.925C8.32074 11.575 8.95232 12.0833 9.70316 12.45C10.454 12.8167 11.2534 13 12.1014 13C12.9671 13 13.7753 12.8167 14.5262 12.45C15.277 12.0833 15.8997 11.575 16.3944 10.925C16.6241 10.6417 16.8935 10.4167 17.2027 10.25C17.5118 10.0833 17.8342 10 18.1699 10H21.6414C22.2421 10 22.7456 10.1917 23.1519 10.575C23.5582 10.9583 23.7614 11.4333 23.7614 12V15C23.7614 15.2833 23.6598 15.5208 23.4567 15.7125C23.2535 15.9042 23.0017 16 22.7014 16H17.4014C17.1011 16 16.8493 15.9042 16.6462 15.7125C16.443 15.5208 16.3414 15.2833 16.3414 15V13.725C15.7231 14.1417 15.0562 14.4583 14.3407 14.675C13.6252 14.8917 12.8787 15 12.1014 15C11.3417 15 10.5997 14.8875 9.87541 14.6625C9.15107 14.4375 8.47974 14.1167 7.86141 13.7V15C7.86141 15.2833 7.75982 15.5208 7.55666 15.7125C7.35349 15.9042 7.10174 16 6.80141 16H1.50141C1.20107 16 0.949323 15.9042 0.746156 15.7125C0.54299 15.5208 0.441406 15.2833 0.441406 15ZM12.1014 12C11.4301 12 10.7941 11.8542 10.1934 11.5625C9.59274 11.2708 9.08924 10.8667 8.68291 10.35C8.38257 9.93333 8.00716 9.60417 7.55666 9.3625C7.10616 9.12083 6.61591 9 6.08591 9C6.47457 8.38333 7.29607 7.89583 8.55041 7.5375C9.80474 7.17917 10.9884 7 12.1014 7C13.2144 7 14.3981 7.17917 15.6524 7.5375C16.9067 7.89583 17.7282 8.38333 18.1169 9C17.6046 9 17.1187 9.12083 16.6594 9.3625C16.2001 9.60417 15.8202 9.93333 15.5199 10.35C15.1312 10.8833 14.6366 11.2917 14.0359 11.575C13.4352 11.8583 12.7904 12 12.1014 12ZM3.62141 9C2.73807 9 1.98724 8.70833 1.36891 8.125C0.750573 7.54167 0.441406 6.83333 0.441406 6C0.441406 5.15 0.750573 4.4375 1.36891 3.8625C1.98724 3.2875 2.73807 3 3.62141 3C4.52241 3 5.27766 3.2875 5.88716 3.8625C6.49666 4.4375 6.80141 5.15 6.80141 6C6.80141 6.83333 6.49666 7.54167 5.88716 8.125C5.27766 8.70833 4.52241 9 3.62141 9ZM20.5814 9C19.6981 9 18.9472 8.70833 18.3289 8.125C17.7106 7.54167 17.4014 6.83333 17.4014 6C17.4014 5.15 17.7106 4.4375 18.3289 3.8625C18.9472 3.2875 19.6981 3 20.5814 3C21.4824 3 22.2377 3.2875 22.8472 3.8625C23.4567 4.4375 23.7614 5.15 23.7614 6C23.7614 6.83333 23.4567 7.54167 22.8472 8.125C22.2377 8.70833 21.4824 9 20.5814 9ZM12.1014 6C11.2181 6 10.4672 5.70833 9.84891 5.125C9.23057 4.54167 8.92141 3.83333 8.92141 3C8.92141 2.15 9.23057 1.4375 9.84891 0.8625C10.4672 0.2875 11.2181 0 12.1014 0C13.0024 0 13.7577 0.2875 14.3672 0.8625C14.9767 1.4375 15.2814 2.15 15.2814 3C15.2814 3.83333 14.9767 4.54167 14.3672 5.125C13.7577 5.70833 13.0024 6 12.1014 6Z" fill="white"/>
</svg>
